<?xml version="1.0" encoding="UTF-8" standalone="no"?>
<!-- Generator: Adobe Illustrator 19.0.0, SVG Export Plug-In . SVG Version: 6.00 Build 0)  -->

<svg
   xmlns:dc="http://purl.org/dc/elements/1.1/"
   xmlns:cc="http://creativecommons.org/ns#"
   xmlns:rdf="http://www.w3.org/1999/02/22-rdf-syntax-ns#"
   xmlns:svg="http://www.w3.org/2000/svg"
   xmlns="http://www.w3.org/2000/svg"
   xmlns:xlink="http://www.w3.org/1999/xlink"
   xmlns:sodipodi="http://sodipodi.sourceforge.net/DTD/sodipodi-0.dtd"
   xmlns:inkscape="http://www.inkscape.org/namespaces/inkscape"
   version="1.0"
   id="DPD_Black"
   x="0px"
   y="0px"
   viewBox="0 0 2586.7849 2771.5331"
   xml:space="preserve"
   sodipodi:docname="jadlog-logo.svg"
   width="2586.7849"
   height="2771.533"
   inkscape:version="0.92.2 (5c3e80d, 2017-08-06)"><metadata
     id="metadata24"><rdf:RDF><cc:Work
         rdf:about=""><dc:format>image/svg+xml</dc:format><dc:type
           rdf:resource="http://purl.org/dc/dcmitype/StillImage" /><dc:title></dc:title></cc:Work></rdf:RDF></metadata><defs
     id="defs22"><linearGradient
       id="linearGradient933"
       gradientUnits="userSpaceOnUse"
       x1="368.43799"
       y1="1086.5962"
       x2="737.95709"
       y2="776.53302"><stop
         offset="0"
         style="stop-color:#C00D3E"
         id="stop6-3" /><stop
         offset="0.2974"
         style="stop-color:#CF133C"
         id="stop8-3" /><stop
         offset="0.7324"
         style="stop-color:#E01837"
         id="stop10-0" /><stop
         offset="1"
         style="stop-color:#E71A34"
         id="stop12-5" /></linearGradient><linearGradient
       inkscape:collect="always"
       xlink:href="#linearGradient933"
       id="linearGradient936"
       gradientUnits="userSpaceOnUse"
       x1="368.43799"
       y1="1086.5962"
       x2="737.95709"
       y2="776.53302"
       gradientTransform="matrix(0.99375034,0,0,0.99375034,-9e-5,1348.0072)" /></defs><sodipodi:namedview
     pagecolor="#ffffff"
     bordercolor="#666666"
     borderopacity="1"
     objecttolerance="10"
     gridtolerance="10"
     guidetolerance="10"
     inkscape:pageopacity="0"
     inkscape:pageshadow="2"
     inkscape:window-width="1600"
     inkscape:window-height="837"
     id="namedview20"
     showgrid="false"
     fit-margin-top="0"
     fit-margin-left="0"
     fit-margin-right="0"
     fit-margin-bottom="0"
     inkscape:zoom="0.16776024"
     inkscape:cx="1227.9997"
     inkscape:cy="1030.8403"
     inkscape:window-x="-8"
     inkscape:window-y="-8"
     inkscape:window-maximized="1"
     inkscape:current-layer="DPD_Black" /><style
     type="text/css"
     id="style2">
	.st0{fill:#414042;}
	.st1{fill:url(#SVGID_1_);}
</style><g
     id="g17"
     transform="translate(-334.51776,-364.9)"><path
       class="st0"
       d="m 1625.8,990.4 c -36.7,9.7 -84.4,14.5 -126,14.5 -106.6,0 -177.2,-56.7 -177.2,-160.6 0,-98.3 65.7,-161.9 162,-161.9 21.5,0 44.3,2.7 58.1,9.7 V 549.5 h 83.1 z m -83,-224.9 c -13.2,-6.2 -30.4,-9.7 -51.2,-9.7 -50.5,0 -84.4,31.2 -84.4,85.8 0,58.8 36.7,92.1 95.5,92.1 10.4,0 26.3,-0.7 40.2,-3.5 V 765.5 Z m 764.6,224.9 c -36.7,9.7 -84.5,14.5 -126,14.5 -106.6,0 -177.2,-56.7 -177.2,-160.6 0,-98.3 65.8,-161.9 162,-161.9 21.5,0 44.3,2.7 58.1,9.7 V 549.5 h 83.1 z m -83.1,-224.9 c -13.2,-6.2 -30.5,-9.7 -51.2,-9.7 -50.5,0 -84.4,31.2 -84.4,85.8 0,58.8 36.7,92.1 95.5,92.1 10.4,0 26.3,-0.7 40.2,-3.5 V 765.5 Z m -467.8,-0.7 c 13.8,-5.5 33.2,-7.6 49.8,-7.6 51.2,0 86.5,29.8 86.5,83 0,62.8 -39.1,91.3 -91.4,92 v 72.7 c 1.4,0 2.8,0 4.2,0 107.3,0 171.7,-60.2 171.7,-167.5 0,-97.6 -68.5,-155 -169.6,-155 -51.2,0 -101.8,11.8 -135,25.6 v 414.6 h 83.8 z"
       id="path4"
       inkscape:connector-curvature="0"
       style="fill:#414042" /><linearGradient
       id="SVGID_1_"
       gradientUnits="userSpaceOnUse"
       x1="368.43799"
       y1="1086.5962"
       x2="737.95709"
       y2="776.53302"><stop
         offset="0"
         style="stop-color:#C00D3E"
         id="stop6" /><stop
         offset="0.2974"
         style="stop-color:#CF133C"
         id="stop8" /><stop
         offset="0.7324"
         style="stop-color:#E01837"
         id="stop10" /><stop
         offset="1"
         style="stop-color:#E71A34"
         id="stop12" /></linearGradient><path
       class="st1"
       d="m 871.9,744.4 c -3.4,2 -8.8,1.8 -12.2,-0.2 L 840,732.5 c -1.6,-1 -3.1,-2.6 -4.2,-4.5 -0.1,-0.1 -0.1,-0.2 -0.2,-0.3 -1.3,-2.1 -2,-4.2 -2.1,-6.2 l -0.5,-23 c -0.1,-3.9 2.4,-8.6 5.9,-10.6 L 1076.3,549.6 743.2,367.9 c -3.7,-2 -8.5,-3 -13.3,-3 -4.8,0 -9.7,1 -13.4,3 L 383.4,549.5 756.6,766.7 c 3.5,1.9 6.1,6.4 6.1,10.4 V 1094 c 0,4 -2.8,8.6 -6.3,10.4 l -20.1,11.2 c -1.7,0.9 -3.8,1.4 -6,1.4 -0.1,0 -0.3,0 -0.4,0 -2.4,0.1 -4.7,-0.4 -6.4,-1.4 l -20.1,-11.2 c -3.4,-1.8 -6.2,-6.4 -6.2,-10.4 V 811.5 c -0.2,-2.1 -1.7,-4.6 -3.4,-5.5 L 364.9,614.6 v 374.9 c 0,8.4 5.9,18.7 13.2,23 l 338.6,199.7 c 3.6,2.1 8.4,3.2 13.2,3.2 4.8,0 9.5,-1 13.1,-3.2 l 338.6,-199.7 c 7.2,-4.3 13.1,-14.6 13.1,-23 V 614.6 Z"
       id="path15"
       inkscape:connector-curvature="0"
       style="fill:url(#SVGID_1_)" /></g><path
     inkscape:connector-curvature="0"
     class="st1"
     d="m 503.83147,1725.1355 c -3.37882,1.9875 -8.74506,1.7887 -12.12374,-0.1987 l -19.57695,-11.627 c -1.58999,-0.9937 -3.08063,-2.5837 -4.1738,-4.4718 -0.0993,-0.1 -0.0993,-0.1987 -0.19868,-0.2982 -1.2919,-2.0868 -1.9875,-4.1737 -2.08686,-6.1612 l -0.49689,-22.8562 c -0.0993,-3.8757 2.38498,-8.5464 5.86312,-10.5338 L 706.95394,1531.5529 375.93579,1350.9884 c -3.67687,-1.9875 -8.44692,-2.9812 -13.21691,-2.9812 -4.76994,0 -9.63936,0.9937 -13.31627,2.9812 L 18.38436,1531.4536 389.252,1747.296 c 3.47815,1.8881 6.06191,6.3601 6.06191,10.3351 v 314.9194 c 0,3.975 -2.78249,8.5464 -6.26063,10.335 l -19.97441,11.1301 c -1.68936,0.8944 -3.77624,1.3913 -5.96248,1.3913 -0.0993,0 -0.29814,0 -0.39751,0 -2.38497,0.1 -4.67062,-0.3975 -6.35994,-1.3913 l -19.97446,-11.1301 c -3.37877,-1.7886 -6.1612,-6.36 -6.1612,-10.335 v -280.7344 c -0.19874,-2.0869 -1.68942,-4.5711 -3.37878,-5.4657 L 0,1596.1467 v 372.557 c 0,8.3475 5.86311,18.5832 13.1175,22.8563 l 336.48389,198.4519 c 3.5775,2.0869 8.34755,3.18 13.11749,3.18 4.76999,0 9.44068,-0.9938 13.01812,-3.18 L 712.22094,1991.56 c 7.155,-4.2731 13.018,-14.5088 13.018,-22.8563 v -372.557 z"
     id="path15-4"
     style="fill:url(#linearGradient936);stroke-width:0.99375027"
     inkscape:export-filename="G:\Users\suitedoalex\sites\jadlog-logo-7.png"
     inkscape:export-xdpi="1.8555853"
     inkscape:export-ydpi="1.8555853" /><g
     transform="matrix(0.99493724,0,0,0.99493724,867.94054,1672.3294)"
     id="g38"
     style="fill:#414042;fill-opacity:1"
     inkscape:export-filename="G:\Users\suitedoalex\sites\jadlog-logo-7.png"
     inkscape:export-xdpi="1.8555853"
     inkscape:export-ydpi="1.8555853"><path
       inkscape:connector-curvature="0"
       class="st3"
       d="m 1726.4907,12.754779 c 0.4,-0.1 0.8,-0.1 1.1,-0.2 0,91.200001 0,182.400001 0,273.600001 l -0.4,0.1 h -0.4 c -2.5,-2.5 -1.7,-5.7 -1.7,-8.6 -0.1,-44.1 0,-88.2 0,-132.3 0,-41.4 0,-82.800001 0,-124.200001 0,-2.9 -0.6,-5.8 1.4,-8.4 z"
       id="path12"
       style="fill:#414042;fill-opacity:1" /><path
       inkscape:connector-curvature="0"
       class="st5"
       d="m 1726.4907,12.754779 c 0.1,2.1 0.2,4.2 0.2,6.2 0,85.100001 0,170.200001 0,255.300001 0,4 0.1,8 0.2,12 -0.2,20.1 -3.3,39.8 -9.8,58.9 -8.5,25.30002 -22.8,46.40002 -44.9,61.80002 -16,11.1 -33.9,17.7 -53,21.3 -18.5,3.5 -37.1,4 -55.9,3.5 -27.6,-0.8 -54.8,-3.8 -81.9,-9 -2.6,-0.5 -3.4,-1.4 -3.4,-4 0.1,-22.4 0.1,-44.8 0.1,-67.20002 0,-0.3 0.1,-0.6 0.3,-1.2 1.5,-0.3 3,0.3 4.4,0.6 30.6,7.60002 61.7,10.90002 93.2,10.20002 12.1,-0.3 23.8,-2.4 34.9,-7.50002 17.6,-8.2 27.7,-22 31.4,-40.9 0.9,-4.9 1.2,-9.8 1.2,-14.8 0,-74.1 0,-148.2 0,-222.200001 0,-5.5 0.5,-4.5 -4.3,-6.5 -9.1,-3.8 -18.7,-5.5 -28.4,-6.2 -14.4,-1 -28.8,-1.2 -42.9,2.3 -27.1,6.7 -45.6,23.3 -54.7,49.500001 -8.5,24.4 -7.4,49 2.6,72.7 11.2,26.6 32.6,41 60.3,46.9 9.9,2.1 20,2.3 30.1,2 3.6,-0.1 3.7,-0.1 3.7,3.6 0,21.8 0,43.5 0,65.3 0,3.4 -0.1,3.6 -3.3,3.8 -35.5,2.6 -70,-1.1 -102.2,-17.5 -36,-18.2 -59.9,-47 -71.7,-85.4 -10.4,-34.1 -12.5,-68.9 -4.7,-103.8 11.3,-50.300001 42.2,-83.900001 90.1,-102.20000073 17.6,-6.69999997 35.9,-10.50000027 54.7,-11.70000027 52.7,-3.4 104.1,5.1000003 153.7,24.2 z"
       id="path16"
       style="fill:#414042;fill-opacity:1" /><path
       d="m 2080.1719,1429.2031 c -3.608,-0.035 -3.3028,0.1399 -3.3028,5.2149 v 2.9004 128.0996 c 0,1.9 0.4004,3.8004 -0.5996,5.9004 -10.6,-4.5 -21.6996,-6.6004 -33.0996,-7.9004 -25.3,-2.7 -50.4996,-1.6993 -75.0996,5.3008 -51.6,14.6999 -86.6004,47.2992 -102.9004,98.6992 -10.8,34.2 -11.3008,69.0011 -2.8008,103.7011 10,40.9 33.7,71.4985 71,91.3985 26,13.9 54.1008,20.3011 83.3008,21.7012 38.6,1.8999 76.9996,-1.2012 115.0996,-7.7012 8.5,-1.5 16.9008,-3.3985 25.3008,-5.3985 2.3,-0.5 3.3,-1.6004 3,-3.9003 -0.1,-0.8001 0,-1.6004 0,-2.4004 v -430 c 0,-1.2 -0.1,-2.3004 0,-3.4004 0.1,-1.7 -0.7008,-2.2992 -2.3008,-2.1992 -1,0.1 -1.9004,0 -2.9004,0 h -72.9003 c -0.6876,0 -1.2815,-0.011 -1.7969,-0.016 z m -51.3946,206.2637 c 14.4336,0.048 28.7305,2.6894 42.793,7.752 6.4,2.3 5.1992,1.8003 5.1992,7.4003 0.1,25.7 0.1,51.3993 0.1,77.1993 v 76.3007 c 0,1 -0.1,1.8985 0,2.8985 0.3,2.5 -0.8992,3.3012 -3.1992,3.7012 -7.7,1.2999 -15.5004,1.9999 -23.4004,2.5 -16.5,0.9 -32.9004,0.3999 -48.9004,-4.5 -33.3,-10.2001 -52.3988,-32.8008 -58.2988,-66.8008 -3.1,-17.7 -2.5,-35.3993 3,-52.6992 9,-27.8001 28.1996,-44.9 56.5996,-51 8.7375,-1.875 17.4473,-2.7807 26.1074,-2.752 z"
       transform="translate(-1263.679,-1573.2637)"
       id="path18"
       inkscape:connector-curvature="0"
       style="fill:#414042;fill-opacity:1" /><path
       d="m 1664.4121,1562.8906 c -13.5422,0.1219 -27.043,1.0035 -40.543,2.7285 -23.7,3 -46.6988,8.9993 -68.7988,18.1993 -2.8,1.1 -3.8008,2.4 -3.8008,5.5 0.1,21.8 0.1,43.5007 0.1,65.3007 0,1.1 -0.3988,2.1989 0.7012,3.2989 2.1,-0.8 4.1992,-1.5004 6.1992,-2.4004 31.9,-13.4 64.8996,-21.4988 99.5996,-21.7988 9.6,-0.1001 19.2012,-0.5008 28.7012,1.1992 12.7,2.2 23.8996,7.2004 32.5996,16.9004 9.8,10.8 14.1989,24.0007 16.7989,38.3007 -2.3,0.9 -3.9985,0.5997 -5.8985,0.5997 -27,0.1 -54.1015,-8e-4 -81.1015,0.1992 -17.5,0.1 -34.7985,2.5008 -51.3985,8.3008 -21.3,7.4999 -39.3015,19.4996 -50.6015,39.5996 -14.3,25.6 -16.7997,52.7996 -7.5997,80.5996 7.2,21.9 22.3004,37.8004 41.9004,49.4004 23,13.6 48.1996,19.0996 74.5996,20.5996 9.6,0.5 19.2008,0.3011 28.8008,0.2011 22.1,-0.2 44.1,-1.5003 66,-4.4003 21.4,-2.8 42.4989,-7.5012 63.2989,-13.2012 6.2,-1.7 5.4003,-0.1989 5.4003,-6.7988 v -130.0997 c 0,-12.5 -0.099,-25.0003 -1.1992,-37.4003 -1.7,-17.7001 -4.8004,-35.1004 -10.9004,-51.9004 -13.3,-36.5 -37.8996,-61.6004 -75.0996,-73.9004 -17.6,-5.8 -35.8011,-8.3004 -54.2011,-8.9004 -4.5251,-0.125 -9.0426,-0.1676 -13.5567,-0.127 z m -2.1523,194.7852 c 9.7031,-0.014 19.4343,0.043 29.1093,0.043 0.1,0.1 0.1,0.1 0.1,0 h 41.7011 c 3.6,0 3.6992,0.099 3.6992,3.6992 v 52.3008 c 0,5.5999 4e-4,5.5992 -5.5996,6.1992 -17.3,2 -34.6992,2.8004 -52.1992,1.9004 -10.7,-0.5 -21.3012,-1.7993 -31.7012,-4.6993 -7.4,-2.1 -14.4992,-4.9007 -20.6992,-9.8007 -6.9,-5.4 -11.0004,-12.4008 -11.4004,-21.3008 -0.5,-10.8 4.1,-18.7 14,-23.5 7.4,-3.5 15.3008,-4.6988 23.3008,-4.7988 3.225,-0.025 6.4551,-0.038 9.6895,-0.043 z"
       transform="translate(-1263.679,-1573.2637)"
       id="path20"
       inkscape:connector-curvature="0"
       style="fill:#414042;fill-opacity:1" /><path
       d="m 2496.2695,1563.1191 c -13.5,0.2 -28.4996,1.5985 -43.0996,5.3985 -49.5,13.2 -85.2,42.8015 -104.5,90.6015 -14,34.7 -15.8996,70.6985 -7.0996,106.8985 12.6,52.2 44.1,88.8008 94.5,107.8008 39.5,14.9 79.8988,14.9996 119.7988,1.0996 46.2,-16.1 77.8008,-47.6004 93.8008,-93.9004 12.6,-36.3 12.8,-73.2985 1.5,-109.8985 -12.5,-40.4 -37.8996,-70.6 -75.5996,-90 -24.4,-12.5 -50.5008,-17.7 -79.3008,-18 z m 0.3535,72.127 c 2.9014,-0.024 5.8211,0.1012 8.7461,0.373 28.2,2.6 55.2008,20.4 65.3008,57.5 1.2,4.5 2.0988,8.9996 2.7989,13.5997 0.7999,5.7 1.4007,11.6003 1.3007,14.9003 -0.2,19.3 -2.7,35.3985 -10.5,50.3985 -14.7,28.5 -38.5008,41.7008 -70.3007,40.8008 -33.4001,-1 -57.8,-21.4997 -67.5,-50.5996 -9.4001,-28.2001 -9.1001,-56.3012 3,-83.7012 12.7781,-28.9094 39.1078,-43.0354 67.1542,-43.2715 z"
       transform="translate(-1263.679,-1573.2637)"
       id="path22"
       inkscape:connector-curvature="0"
       style="fill:#414042;fill-opacity:1" /><path
       inkscape:connector-curvature="0"
       class="st5"
       d="m 36.89067,348.95478 c 9.3,2.7 18,4.7 26.9,5.9 14.1,1.80002 28.3,3.20002 42.6,1.50002 10.5,-1.30002 20.3,-4.50002 28.3,-11.70002 8,-7.2 11.9,-16.4 13.8,-26.8 0.8,-4.7 1,-9.5 1,-14.3 0,-99.4 0,-198.7 0,-298.1000007 0,-7.1 -0.9,-6.10000003 6.1,-6.10000003 24,0 48,0 72,0 1.1,0 2.2,0.1 3.4,0 1.9,-0.1 2.6,0.8 2.5,2.60000003 -0.1,1.1 0,2.2 0,3.4 0,100.8000007 0,201.6000007 0,302.4000007 0,17.6 -1.4,35.1 -6.5,52.20002 -10.2,33.7 -32.8,54.8 -66.2,64.7 -12.9,3.8 -26.2,5.8 -39.6,6.8 -26.6,1.9 -53,-0.4 -79.4,-4.1 -0.3,0 -0.6,-0.1 -0.9,-0.2 -3.7,-0.7 -3.8,-0.7 -3.8,-4.5 0,-21 0,-41.9 0,-62.9 -0.2,-3.5 -0.2,-6.80002 -0.2,-10.80002 z"
       id="path24"
       style="fill:#414042;fill-opacity:1" /><path
       inkscape:connector-curvature="0"
       class="st5"
       d="m 1035.4907,82.154779 c 0,73.300001 0,146.500001 0,219.800001 0,6.3 1.2,5.9 -5.8,5.9 -24,0 -48.00003,0 -72.00003,0 -1,0 -1.9,0 -2.9,0 -1.7,0.1 -2.3,-0.8 -2.2,-2.4 0,-1 0,-1.9 0,-2.9 0,-147.2 0,-294.3000007 0,-441.5 0,-0.5 0,-1 0,-1.4 0.1,-3.6 0.1,-3.7 3.7,-3.7 24.8,0 49.60003,0 74.40003,0 5.5,0 4.8,-0.4 4.8,4.9 0,69.399999 0,138.89999927 0,208.299999 0,4.4 0,8.7 0,13 z"
       id="path26"
       style="fill:#414042;fill-opacity:1" /><path
       inkscape:connector-curvature="0"
       class="st5"
       d="m 233.29067,-81.745221 c -0.5,23.2 -19.1,41.4 -41.9,41 -23.6,-0.4 -41.6,-19.2 -41.1,-42.8 0.5,-22.799999 19.5,-40.799999 42.6,-40.299999 22.6,0.6 40.9,19.5 40.4,42.099999 z"
       id="path28"
       style="fill:#414042;fill-opacity:1" /></g><text
     xml:space="preserve"
     style="font-style:normal;font-weight:normal;font-size:160.26327515px;line-height:1.25;font-family:sans-serif;letter-spacing:0px;word-spacing:0px;fill:#000000;fill-opacity:1;stroke:none;stroke-width:3.75617027"
     x="328.22916"
     y="2769.2637"
     id="text1057"><tspan
       sodipodi:role="line"
       id="tspan1055"
       x="328.22916"
       y="2769.2637"
       style="stroke-width:3.75617027">LOGODOWNLOAD.ORG</tspan></text>
</svg>